<svg width="24" height="24" viewBox="0 0 24 24" fill="none" 
     xmlns="http://www.w3.org/2000/svg">
<path d="M7 2C4.2 2 2 4.2 2 7V17C2 19.8 4.2 22 7 22H17C19.8 22 22 19.8 22 17V7C22 4.2 19.8 2 17 2H7ZM16.75 5.5C17.44 5.5 18 6.06 18 6.75C18 7.44 17.44 8 16.75 8C16.06 8 15.5 7.44 15.5 6.75C15.5 6.06 16.06 5.5 16.75 5.5ZM12 7C14.76 7 17 9.24 17 12C17 14.76 14.76 17 12 17C9.24 17 7 14.76 7 12C7 9.24 9.24 7 12 7ZM12 9C10.34 9 9 10.34 9 12C9 13.66 10.34 15 12 15C13.66 15 15 13.66 15 12C15 10.34 13.66 9 12 9Z" 
      fill="white"/>
</svg>

