<svg xmlns="http://www.w3.org/2000/svg" width="24" height="24" fill="white" viewBox="0 0 24 24">
<path d="M12 2.2c3.2 0 3.6.01 4.9.07 1.17.05 1.96.24 2.41.41.61.24 1.04.53 1.5.99.46.46.75.89.99 1.5.17.45.36 1.24.41 2.41.06 1.28.07 1.67.07 4.9s-.01 3.62-.07 4.9c-.05 1.17-.24 1.96-.41 2.41a3.93 3.93 0 0 1-.99 1.5 3.93 3.93 0 0 1-1.5.99c-.45.17-1.24.36-2.41.41-1.28.06-1.67.07-4.9.07s-3.62-.01-4.9-.07c-1.17-.05-1.96-.24-2.41-.41a3.93 3.93 0 0 1-1.5-.99 3.93 3.93 0 0 1-.99-1.5c-.17-.45-.36-1.24-.41-2.41C2.21 15.62 2.2 15.23 2.2 12s.01-3.62.07-4.9c.05-1.17.24-1.96.41-2.41.24-.61.53-1.04.99-1.5a3.93 3.93 0 0 1 1.5-.99c.45-.17 1.24-.36 2.41-.41C8.38 2.21 8.77 2.2 12 2.2zm0 3.1a6.7 6.7 0 1 0 0 13.4 6.7 6.7 0 0 0 0-13.4zm0 11a4.3 4.3 0 1 1 0-8.6 4.3 4.3 0 0 1 0 8.6zm5.23-11.93a1.56 1.56 0 1 1 0-3.12 1.56 1.56 0 0 1 0 3.12z"/>
</svg>
