<svg width="24" height="24" viewBox="0 0 24 24" fill="#ffffff" xmlns="http://www.w3.org/2000/svg">
<path d="M12 7.2a4.8 4.8 0 1 0 0 9.6 4.8 4.8 0 0 0 0-9.6zm0 7.8a3 3 0 1 1 0-6.1 3 3 0 0 1 0 6.1zm5-8.4a1.1 1.1 0 1 1 0-2.3 1.1 1.1 0 0 1 0 2.3z"/>
<path d="M12 2.2c-2.6 0-2.9 0-3.9.1-1 .1-1.7.3-2.3.6a4.6 4.6 0 0 0-1.7 1.7c-.3.6-.5 1.3-.6 2.3-.1 1-.1 1.3-.1 3.9s0 2.9.1 3.9c.1 1 .3 1.7.6 2.3a4.6 4.6 0 0 0 1.7 1.7c.6.3 1.3.5 2.3.6 1 .1 1.3.1 3.9.1s2.9 0 3.9-.1c1-.1 1.7-.3 2.3-.6a4.6 4.6 0 0 0 1.7-1.7c.3-.6.5-1.3.6-2.3.1-1 .1-1.3.1-3.9s0-2.9-.1-3.9c-.1-1-.3-1.7-.6-2.3a4.6 4.6 0 0 0-1.7-1.7c-.6-.3-1.3-.5-2.3-.6-1-.1-1.3-.1-3.9-.1z"/>
</svg>
