<svg xmlns="http://www.w3.org/2000/svg" width="24" height="24" viewBox="0 0 24 24" fill="white">
  <path d="M22.46 6c-.77.35-1.6.58-2.46.69a4.26 4.26 0 0 0 1.88-2.36 8.36 8.36 0 0 1-2.72 1.04A4.18 4.18 0 0 0 16.11 4c-2.32 0-4.2 1.92-4.2 4.29 0 .34.03.67.1.98-3.49-.18-6.59-1.9-8.66-4.5a4.41 4.41 0 0 0-.57 2.16c0 1.49.73 2.8 1.83 3.57a4.13 4.13 0 0 1-1.9-.54v.05c0 2.08 1.45 3.82 3.36 4.22a4.07 4.07 0 0 1-1.89.08c.54 1.78 2.1 3.07 3.95 3.11A8.46 8.46 0 0 1 2 19.54a11.89 11.89 0 0 0 6.56 1.98c7.87 0 12.18-6.69 12.18-12.48 0-.19 0-.37-.01-.56A8.88 8.88 0 0 0 22.46 6z"/>
</svg>
