<svg width="24" height="24" viewBox="0 0 24 24" fill="none"
     xmlns="http://www.w3.org/2000/svg">
<path d="M22.46 6C21.69 6.35 20.86 6.58 20 6.69C20.88 6.16 21.56 5.32 21.88 4.31C21.05 4.81 20.14 5.16 19.17 5.36C18.39 4.5 17.26 4 16 4C13.65 4 11.73 5.92 11.73 8.27C11.73 8.61 11.76 8.94 11.84 9.25C8.28 9.09 5.11 7.38 3 4.79C2.63 5.42 2.42 6.16 2.42 6.94C2.42 8.43 3.17 9.75 4.33 10.5C3.64 10.5 2.99 10.31 2.41 10V10.03C2.41 12.11 3.94 13.85 5.93 14.22C5.59 14.31 5.22 14.36 4.84 14.36C4.57 14.36 4.31 14.34 4.06 14.29C4.59 16 6.21 17.23 8.14 17.27C6.62 18.39 4.71 19.06 2.64 19.06C2.29 19.06 1.94 19.04 1.6 18.99C3.55 20.19 5.84 20.89 8.29 20.89C15.98 20.89 20.16 14.44 20.16 8.78C20.16 8.6 20.16 8.43 20.15 8.25C20.98 7.67 21.7 6.94 22.46 6Z"
      fill="white"/>
</svg>
